{
  "asset": {
    "version": "2.0"
  },
  "scene": 0,
  "scenes": [
    {
      "nodes": [
        0,
        1,
        2
      ]
    }
  ],
  "nodes": [
    {
      "mesh": 0
    },
    {
      "mesh": 1
    },
    {
      "mesh": 2
    }
  ],
  "meshes": [
    {
      "name": "Mesh0",
      "primitives": [
        {
          "attributes": {
            "POSITION": 0
          }
        }
      ]
    },
    {
      "name": "Mesh1",
      "primitives": [
        {
          "attributes": {
            "POSITION": 1
          }
        }
      ]
    },
    {
      "name": "Mesh2",
      "primitives": [
        {
          "attributes": {
            "POSITION": 2
          }
        }
      ]
    }
  ],
  "accessors": [
    {
      "bufferView": 0,
      "componentType": 5126,
      "count": 3,
      "type": "VEC3",
      "min": [
        -0.5,
        -0.5,
        0.0
      ],
      "max": [
        0.5,
        0.5,
        0.0
      ]
    },
    {
      "bufferView": 1,
      "componentType": 5126,
      "count": 3,
      "type": "VEC3",
      "min": [
        -0.5,
        -0.5,
        1.0
      ],
      "max": [
        0.5,
        0.5,
        1.0
      ]
    },
    {
      "bufferView": 2,
      "componentType": 5126,
      "count": 3,
      "type": "VEC3",
      "min": [
        -0.5,
        -0.5,
        2.0
      ],
      "max": [
        0.5,
        0.5,
        2.0
      ]
    }
  ],
  "bufferViews": [
    {
      "buffer": 0,
      "byteOffset": 0,
      "byteLength": 36
    },
    {
      "buffer": 0,
      "byteOffset": 36,
      "byteLength": 36
    },
    {
      "buffer": 0,
      "byteOffset": 72,
      "byteLength": 36
    }
  ],
  "buffers": [
    {
      "byteLength": 108,
      "uri": "data:application/octet-stream;base64,"
    }
  ]
}